# xmcd CD database file
#
# Track frame offsets:
#	150
#	33527
#	70195
#	98912
#	123648
#	142975
#	169675
#	184235
#	201028
#	213801
#
# Disc length: 3462 seconds
#
# Revision: 2
# Processed by: cddbd v1.5.2PL0 Copyright (c) Steve Scherf et al.
# Submitted via: CDex 1.77
#
DISCID=8e0d840a
DTITLE=Ziv Ravitz - no man is an island
DYEAR=2019
DGENRE=Jazz
TTITLE0=naomi
TTITLE1=peire aussane 1
TTITLE2=no man is an island
TTITLE3=emma and mika
TTITLE4=the stroy teller
TTITLE5=the dragon
TTITLE6=instant
TTITLE7=if I only had an answer
TTITLE8=peire aussane 2
TTITLE9=sleep next to me
EXTD=YEAR: 2019
EXTT0=
EXTT1=
EXTT2=
EXTT3=
EXTT4=
EXTT5=
EXTT6=
EXTT7=
EXTT8=
EXTT9=
PLAYORDER=
